Source: The.Lord.of.the.Rings.The.Two.Towers.2002.720p.Bluray.x264-CBGB

Subs: Arabic, Croatian, Danish, Dutch, English, Finnish, French, Greek, Hebrew, Hungarian, Polish, Romanian, Slovenian, Spanish, Swedish, Turkish and Vietnamese.

Sample and Screens included.

General
Complete name                    : The Lord of the Rings-The Two Towers-720p x264 BRRip 2002-CC.mp4
Format                           : MPEG-4
Format profile                   : Base Media
Codec ID                         : isom
File size                        : 3.06 GiB
Duration                         : 2h 59mn
Overall bit rate                 : 2 442 Kbps
Encoded date                     : UTC 2012-04-20 06:07:46

Video
ID                               : 1
Format                           : AVC
Format/Info                      : Advanced Video Codec
Format profile                   : High@L3.1
Format settings, CABAC           : Yes
Format settings, ReFrames        : 5 frames
Codec ID                         : avc1
Codec ID/Info                    : Advanced Video Coding
Duration                         : 2h 59mn
Bit rate mode                    : Variable
Bit rate                         : 2 054 Kbps
Nominal bit rate                 : 2 097 Kbps
Maximum bit rate                 : 13.9 Mbps
Width                            : 1 280 pixels
Height                           : 528 pixels
Display aspect ratio             : 2.40:1
Frame rate mode                  : Variable
Frame rate                       : 23.976 fps
Minimum frame rate               : 19.048 fps
Maximum frame rate               : 24.390 fps
Resolution                       : 24 bits
Colorimetry                      : 4:2:0
Scan type                        : Progressive
Bits/(Pixel*Frame)               : 0.127
Stream size                      : 2.57 GiB (84%)
Writing library                  : x264 core 112

Audio
ID                               : 2
Format                           : AAC
Format/Info                      : Advanced Audio Codec
Format version                   : Version 4
Format profile                   : LC
Format settings, SBR             : No
Codec ID                         : 40
Duration                         : 2h 59mn
Bit rate mode                    : Variable
Bit rate                         : 384 Kbps
Maximum bit rate                 : 623 Kbps
Channel(s)                       : 6 channels
Channel positions                : Front: L C R, Rear: L R, LFE
Sampling rate                    : 48.0 KHz
Resolution                       : 16 bits
Stream size                      : 492 MiB (16%)
Language                         : English

Enjoy...

Requested by Maincore.